HIERARCHY
ROOT root
{
	OFFSET 0.000000 0.000000 0.000000
	CHANNELS 6 Xposition Yposition Zposition Zrotation Yrotation Xrotation
	JOINT lhip
	{
		OFFSET 0.058581 -0.082280 -0.017664
		CHANNELS 3 Zrotation Yrotation Xrotation
		JOINT lknee
		{
			OFFSET 0.043451 -0.386469 0.008037
			CHANNELS 3 Zrotation Yrotation Xrotation
			JOINT lankle
			{
				OFFSET -0.014790 -0.426874 -0.037428
				CHANNELS 3 Zrotation Yrotation Xrotation
				JOINT ltoe
				{
					OFFSET 0.041054 -0.060286 0.122042
					CHANNELS 3 Zrotation Yrotation Xrotation
					End Site
					{
						OFFSET 0.000000 0.000000 0.000000
					}
				}
			}
		}
	}
	JOINT rhip
	{
		OFFSET -0.060310 -0.090513 -0.013543
		CHANNELS 3 Zrotation Yrotation Xrotation
		JOINT rknee
		{
			OFFSET -0.043257 -0.383688 -0.004843
			CHANNELS 3 Zrotation Yrotation Xrotation
			JOINT rankle
			{
				OFFSET 0.019056 -0.420046 -0.034562
				CHANNELS 3 Zrotation Yrotation Xrotation
				JOINT rtoe
				{
					OFFSET -0.034840 -0.062106 0.130323
					CHANNELS 3 Zrotation Yrotation Xrotation
					End Site
					{
						OFFSET 0.000000 0.000000 0.000000
					}
				}
			}
		}
	}
	JOINT lowerback
	{
		OFFSET 0.004439 0.124404 -0.038385
		CHANNELS 3 Zrotation Yrotation Xrotation
		JOINT upperback
		{
			OFFSET 0.004488 0.137956 0.026820
			CHANNELS 3 Zrotation Yrotation Xrotation
			JOINT chest
			{
				OFFSET -0.002265 0.056032 0.002855
				CHANNELS 3 Zrotation Yrotation Xrotation
				JOINT lowerneck
				{
					OFFSET -0.013390 0.211636 -0.033468
					CHANNELS 3 Zrotation Yrotation Xrotation
					JOINT upperneck
					{
						OFFSET 0.010113 0.088937 0.050410
						CHANNELS 3 Zrotation Yrotation Xrotation
						End Site
						{
							OFFSET 0.000000 0.000000 0.000000
						}
					}
				}
				JOINT lclavicle
				{
					OFFSET 0.071702 0.114000 -0.018898
					CHANNELS 3 Zrotation Yrotation Xrotation
					JOINT lshoulder
					{
						OFFSET 0.122921 0.045205 -0.019046
						CHANNELS 3 Zrotation Yrotation Xrotation
						JOINT lelbow
						{
							OFFSET 0.255332 -0.015649 -0.022946
							CHANNELS 3 Zrotation Yrotation Xrotation
							JOINT lwrist
							{
								OFFSET 0.265709 0.012698 -0.007375
								CHANNELS 3 Zrotation Yrotation Xrotation
								End Site
								{
									OFFSET 0.000000 0.000000 0.000000
								}
							}
						}
					}
				}
				JOINT rclavicle
				{
					OFFSET -0.082954 0.112472 -0.023707
					CHANNELS 3 Zrotation Yrotation Xrotation
					JOINT rshoulder
					{
						OFFSET -0.113228 0.046853 -0.008472
						CHANNELS 3 Zrotation Yrotation Xrotation
						JOINT relbow
						{
							OFFSET -0.260127 -0.014369 -0.031269
							CHANNELS 3 Zrotation Yrotation Xrotation
							JOINT rwrist
							{
								OFFSET -0.269108 0.006794 -0.006027
								CHANNELS 3 Zrotation Yrotation Xrotation
								End Site
								{
									OFFSET 0.000000 0.000000 0.000000
								}
							}
						}
					}
				}
			}
		}
	}
}
MOTION
Frames: 8
Frame Time: 0.033333
0.354797 -0.413280 0.979670 -178.152599 0.173112 92.057609 8.202169 1.336116 -11.591996 -5.299411 -5.571190 8.967675 -0.005276 4.371278 -5.339351 0.000000 -0.000000 0.000000 -8.982834 -6.039299 -15.050965 0.517440 -3.798637 13.100985 6.136697 -3.232169 -0.752564 0.000000 -0.000000 0.000000 1.221770 2.885694 18.863647 1.444949 -2.806114 3.575511 1.065837 1.408647 -2.063674 1.300147 5.458244 17.653792 7.125556 0.378359 22.292057 -21.503541 -23.152748 5.825950 -70.793364 -22.256782 27.039564 -3.896868 -28.141846 9.525693 16.296623 11.398134 -40.599838 23.201889 22.367881 8.802366 71.838908 25.601221 21.213025 -13.351848 17.464118 -16.980160 -4.118077 -5.339891 -33.240342 
0.354679 -0.414094 0.979400 -178.325353 0.188514 92.122113 8.228322 1.255414 -11.701699 -5.240787 -5.266446 9.016082 0.296705 4.255777 -5.297781 0.000000 -0.000000 0.000000 -9.032658 -5.870853 -15.157888 0.550494 -4.007803 13.026720 6.015611 -3.037664 -0.607718 0.000000 -0.000000 0.000000 1.172327 2.866868 18.914177 1.426319 -2.996316 3.386958 0.975271 1.327212 -2.013311 1.423011 5.700683 17.848222 7.145402 0.434422 22.336806 -21.522271 -23.189958 5.967004 -70.734970 -22.464163 26.936403 -3.825420 -28.087588 9.317790 15.554440 10.877985 -40.730397 23.091608 21.990200 8.744575 71.972017 25.562113 21.264474 -13.463788 17.807429 -16.585970 -4.253285 -5.640168 -33.276590 
0.354680 -0.414878 0.979305 -178.573385 0.166487 92.022588 8.238484 1.324205 -11.591561 -5.287940 -5.199092 9.016864 0.267810 4.322384 -5.351859 0.000000 -0.000000 0.000000 -9.048561 -5.739350 -15.157713 0.532662 -3.929120 13.004492 5.994891 -3.015371 -0.558445 0.000000 -0.000000 0.000000 1.006645 2.694714 19.154538 1.304102 -3.087999 3.286746 0.903501 1.334067 -1.953176 1.493027 5.851597 17.769204 7.159748 0.604922 22.504659 -21.410366 -23.278573 5.857585 -70.763918 -22.540234 27.000934 -3.774213 -27.947711 9.035631 16.191700 10.861620 -40.845866 23.041345 21.955773 8.629212 72.094519 25.584897 21.440599 -13.503502 17.949830 -16.780417 -5.255496 -6.117242 -33.290393 
0.354323 -0.415576 0.979075 -178.701401 0.152049 92.098128 8.197897 1.282727 -11.729364 -5.243685 -5.106524 9.088607 0.325408 4.318235 -5.336793 0.000000 -0.000000 0.000000 -9.135735 -5.827304 -15.258068 0.655156 -3.895535 12.904939 5.993725 -2.848125 -0.462206 0.000000 -0.000000 0.000000 0.903757 2.680488 19.000616 1.285546 -3.300685 3.356312 0.849954 1.177065 -1.838278 1.592586 6.154781 17.902883 7.177767 0.734311 22.375503 -21.546497 -23.424153 5.921199 -70.623630 -22.728284 26.938557 -3.562336 -27.803667 8.907978 16.085161 10.791907 -40.911304 23.057317 21.912633 8.651176 72.075474 25.714022 21.452733 -13.710410 17.928847 -16.690392 -5.800108 -6.389547 -33.280151 
0.354248 -0.415887 0.979108 -178.809408 0.210732 92.053651 8.235030 1.423652 -11.685154 -5.243523 -5.160706 9.108660 0.296572 4.355957 -5.329348 0.000000 -0.000000 0.000000 -9.047435 -5.809415 -15.205505 0.639030 -3.768398 12.794514 6.005145 -2.858194 -0.399918 0.000000 -0.000000 0.000000 0.802450 2.568156 19.094756 1.298900 -3.377369 3.341000 0.924085 1.152842 -1.850162 1.421931 6.180596 17.949311 7.154104 0.965430 22.395214 -21.648736 -23.438976 5.842406 -70.729248 -22.715790 26.860061 -3.204223 -27.747358 8.615006 16.790690 11.622481 -40.408889 22.912923 22.005921 8.552028 72.137468 25.657367 21.424176 -13.789990 17.857725 -16.818656 -5.815087 -6.364711 -33.546097 
0.354285 -0.416145 0.979036 -178.955196 0.267829 92.035188 8.346035 1.453524 -11.621475 -5.281855 -4.989709 9.062258 0.291035 4.297158 -5.321997 0.000000 -0.000000 0.000000 -8.994730 -5.719150 -15.194223 0.663651 -3.781271 12.740484 5.986694 -2.770715 -0.348135 0.000000 -0.000000 0.000000 0.760118 2.496609 19.037880 1.255697 -3.460561 3.535833 0.887155 1.153001 -1.913154 1.530578 6.296499 17.994750 7.052555 0.999580 22.340377 -21.682153 -23.452264 5.898143 -70.658411 -22.895285 26.718277 -3.214638 -27.585321 8.431804 16.275542 11.119490 -40.101555 22.947138 22.011118 8.576060 72.173703 25.726015 21.392594 -13.863217 17.838130 -17.032918 -5.907617 -6.466851 -33.056342 
0.354098 -0.416383 0.979017 -179.013448 0.304324 92.040694 8.360655 1.440758 -11.640602 -5.246303 -4.958272 9.090717 0.293574 4.326275 -5.360763 0.000000 -0.000000 0.000000 -8.912034 -5.693920 -15.215767 0.598921 -3.735011 12.683462 5.990151 -2.805264 -0.284590 0.000000 -0.000000 0.000000 0.786394 2.467172 19.031465 1.256641 -3.535067 3.542684 0.834613 1.075095 -1.819010 1.520596 6.388613 17.945442 7.024772 1.047378 22.291372 -21.611694 -23.500849 5.887826 -70.642245 -22.993310 26.764316 -3.268584 -27.598177 8.670603 16.160414 11.036144 -40.386820 22.968627 21.835465 8.450545 72.330685 25.733300 21.443593 -14.025906 17.830899 -17.176804 -5.945807 -6.589899 -33.064583 
0.353826 -0.416581 0.978997 -179.219023 0.341519 92.063491 8.413404 1.507156 -11.611914 -5.281612 -4.856094 9.070381 0.335715 4.328328 -5.324713 0.000000 -0.000000 0.000000 -8.905516 -5.633502 -15.312677 0.653894 -3.686948 12.701604 6.013587 -2.712661 -0.228604 0.000000 -0.000000 0.000000 0.783636 2.495355 19.006394 1.255432 -3.492869 3.583773 0.804989 1.068619 -1.795234 1.488387 6.456315 17.980901 6.950987 1.037607 22.237519 -21.575653 -23.565352 5.901775 -70.620377 -23.048761 26.807909 -3.314811 -27.666023 8.747084 15.782958 10.956300 -40.671667 23.035301 21.748093 8.558372 72.239569 25.686572 21.387329 -14.185293 18.146747 -17.234567 -5.891720 -6.675864 -32.848950 
